<?xml version="1.0" encoding="UTF-8" standalone="no"?>
<!-- Created with Inkscape (http://www.inkscape.org/) -->

<svg
   xmlns:dc="http://purl.org/dc/elements/1.1/"
   xmlns:cc="http://creativecommons.org/ns#"
   xmlns:rdf="http://www.w3.org/1999/02/22-rdf-syntax-ns#"
   xmlns:svg="http://www.w3.org/2000/svg"
   xmlns="http://www.w3.org/2000/svg"
   xmlns:xlink="http://www.w3.org/1999/xlink"
   xmlns:sodipodi="http://sodipodi.sourceforge.net/DTD/sodipodi-0.dtd"
   xmlns:inkscape="http://www.inkscape.org/namespaces/inkscape"
   width="200"
   height="200"
   viewBox="0 0 200 200"
   id="svg2"
   version="1.1"
   inkscape:version="0.91 r13725"
   sodipodi:docname="logo.svg"
   inkscape:export-filename="/home/xelnor/dev/factory_boy/docs/logo.png"
   inkscape:export-xdpi="90"
   inkscape:export-ydpi="90">
  <defs
     id="defs4">
    <linearGradient
       id="linearGradient4335">
      <stop
         style="stop-color:#bdd9ee;stop-opacity:1"
         offset="0"
         id="stop4337" />
      <stop
         style="stop-color:#a9d8ee;stop-opacity:0"
         offset="1"
         id="stop4339" />
    </linearGradient>
    <linearGradient
       id="linearGradient4689">
      <stop
         id="stop4329"
         offset="0"
         style="stop-color:#5a9fd4;stop-opacity:1;" />
      <stop
         id="stop4331"
         offset="1"
         style="stop-color:#306998;stop-opacity:1;" />
    </linearGradient>
    <linearGradient
       inkscape:collect="always"
       xlink:href="#linearGradient4671"
       id="linearGradient1475"
       gradientUnits="userSpaceOnUse"
       gradientTransform="matrix(0.562541,0,0,0.567972,30.09009,910.65887)"
       x1="150.96111"
       y1="192.35176"
       x2="112.03144"
       y2="137.27299" />
    <linearGradient
       id="linearGradient4671">
      <stop
         style="stop-color:#ffd43b;stop-opacity:1;"
         offset="0"
         id="stop4673" />
      <stop
         style="stop-color:#ffe873;stop-opacity:1"
         offset="1"
         id="stop4675" />
    </linearGradient>
    <linearGradient
       inkscape:collect="always"
       xlink:href="#linearGradient4689"
       id="linearGradient1478"
       gradientUnits="userSpaceOnUse"
       gradientTransform="matrix(0.562541,0,0,0.567972,30.09009,910.65887)"
       x1="26.648937"
       y1="20.603781"
       x2="135.66525"
       y2="114.39767" />
    <linearGradient
       id="linearGradient4333">
      <stop
         style="stop-color:#5a9fd4;stop-opacity:1;"
         offset="0"
         id="stop4691" />
      <stop
         style="stop-color:#306998;stop-opacity:1;"
         offset="1"
         id="stop4693" />
    </linearGradient>
    <linearGradient
       inkscape:collect="always"
       xlink:href="#linearGradient4335"
       id="linearGradient4325"
       x1="230"
       y1="235.00008"
       x2="35"
       y2="-9.9999313"
       gradientUnits="userSpaceOnUse"
       gradientTransform="translate(-2.9000001e-7,34.999931)" />
  </defs>
  <sodipodi:namedview
     id="base"
     pagecolor="#ffffff"
     bordercolor="#666666"
     borderopacity="1.0"
     inkscape:pageopacity="0.0"
     inkscape:pageshadow="2"
     inkscape:zoom="3.7"
     inkscape:cx="80.622926"
     inkscape:cy="116.89106"
     inkscape:document-units="px"
     inkscape:current-layer="layer2"
     showgrid="false"
     units="px"
     inkscape:snap-grids="true"
     inkscape:snap-object-midpoints="true"
     inkscape:snap-bbox="true"
     inkscape:bbox-nodes="true"
     inkscape:object-paths="true"
     inkscape:snap-intersection-paths="true"
     inkscape:object-nodes="true"
     inkscape:snap-smooth-nodes="true"
     inkscape:snap-midpoints="true"
     inkscape:window-width="1920"
     inkscape:window-height="1005"
     inkscape:window-x="0"
     inkscape:window-y="22"
     inkscape:window-maximized="1">
    <inkscape:grid
       type="xygrid"
       id="grid3336" />
  </sodipodi:namedview>
  <metadata
     id="metadata7">
    <rdf:RDF>
      <cc:Work
         rdf:about="">
        <dc:format>image/svg+xml</dc:format>
        <dc:type
           rdf:resource="http://purl.org/dc/dcmitype/StillImage" />
        <dc:title />
      </cc:Work>
    </rdf:RDF>
  </metadata>
  <g
     inkscape:groupmode="layer"
     id="layer2"
     inkscape:label="factory">
    <path
       style="fill:url(#linearGradient4325);fill-opacity:1;fill-rule:evenodd;stroke:#84b2da;stroke-width:4;stroke-linecap:butt;stroke-linejoin:round;stroke-miterlimit:4;stroke-dasharray:none;stroke-opacity:1"
       d="M 4.9999997,194.99993 195,194.99993 195,60 c 0,0 -8.93987,-46.670442 -10,-55 l -20,0 -7,55 -3,0 -40,-30 0,30 -40,-30 -10e-7,30 -35,-27.500034 L 4.9999997,4.9999312 Z"
       id="path3515"
       inkscape:connector-curvature="0"
       sodipodi:nodetypes="cccccccccccccc" />
  </g>
  <g
     inkscape:label="base logo"
     inkscape:groupmode="layer"
     id="layer1"
     transform="translate(0,-852.36216)"
     sodipodi:insensitive="true">
    <path
       inkscape:connector-curvature="0"
       style="fill:url(#linearGradient1478);fill-opacity:1"
       d="m 100,922.36216 c -4.58366,0.0213 -8.96094,0.41222 -12.8125,1.09375 -11.34622,2.0045 -13.40625,6.2001 -13.40625,13.9375 l 0,10.21875 26.8125,0 0,3.40625 -26.8125,0 -10.0625,0 c -7.79246,0 -14.61576,4.68372 -16.75,13.59375 -2.46182,10.21297 -2.57102,16.58602 0,27.24999 1.90592,7.9378 6.45754,13.59375 14.25,13.59375 l 9.21875,0 0,-12.25005 c 0,-8.84984 7.65714,-16.65619 16.75,-16.65619 l 26.78125,0 c 7.45495,0 13.40625,-6.13816 13.40625,-13.625 l 0,-25.53125 c 0,-7.26634 -6.12998,-12.72478 -13.40625,-13.9375 -4.60599,-0.76673 -9.3851,-1.11505 -13.96875,-1.09375 z m -14.5,8.21875 c 2.76954,0 5.03125,2.29865 5.03125,5.125 -1e-5,2.81634 -2.26171,5.09375 -5.03125,5.09375 -2.77948,0 -5.03125,-2.27742 -5.03125,-5.09375 -1e-5,-2.82635 2.25177,-5.125 5.03125,-5.125 z"
       id="path1948" />
    <path
       inkscape:connector-curvature="0"
       style="fill:url(#linearGradient1475);fill-opacity:1"
       d="m 130.71875,951.01841 0,11.90625 c 0,9.23075 -7.8259,17 -16.75,17 l -26.78125,0 c -7.33584,0 -13.40625,6.27848 -13.40625,13.62499 l 0,25.53125 c 0,7.2663 6.31858,11.5403 13.40625,13.625 8.48733,2.4956 16.62623,2.9466 26.78125,0 6.75015,-1.9544 13.40625,-5.8876 13.40625,-13.625 l 0,-10.2187 -26.78125,0 0,-3.4063 26.78125,0 13.40625,0 c 7.79246,0 10.69625,-5.4354 13.40624,-13.59375 2.79933,-8.39888 2.68022,-16.47577 0,-27.24999 -1.92578,-7.75744 -5.60387,-13.59375 -13.40624,-13.59375 l -10.0625,0 z m -15.0625,64.65629 c 2.77947,0 5.03125,2.2774 5.03125,5.0937 -1e-5,2.8263 -2.25178,5.125 -5.03125,5.125 -2.76955,0 -5.03125,-2.2987 -5.03125,-5.125 0,-2.8163 2.26169,-5.0937 5.03125,-5.0937 z"
       id="path1950" />
  </g>
</svg>
